<svg width="40" height="40" viewBox="0 0 40 40" fill="none" xmlns="http://www.w3.org/2000/svg">
<path d="M20.2002 1.20012C19.6783 1.26262 3.4127 12.1689 3.31895 12.5001C3.2252 12.8345 3.1877 16.3095 3.1877 16.3095L5.28457 16.9751L5.29395 19.7376L6.41582 22.0345V31.7439L5.57832 33.572L3.28145 34.2501V35.8939L1.48145 36.4407C1.48145 36.4407 1.50645 37.8501 1.50645 38.0845C1.50645 38.3189 1.58457 38.8157 2.5252 38.8157C3.46582 38.8157 37.7971 38.6564 38.1439 38.6564C38.4908 38.6564 38.8502 38.5876 38.8689 37.9657C38.8877 37.3439 38.8502 36.4657 38.8502 36.4657L37.1064 35.6032L37.1002 34.2251L34.2627 33.3501L33.5783 31.4126L33.5877 22.2845L34.6752 19.9907L35.0033 19.3689V16.9001L36.8314 16.2095C36.8314 16.2095 36.8658 12.6376 36.8127 12.5345C36.7658 12.4345 20.6314 1.15012 20.2002 1.20012Z" fill="#CDDFEE"/>
<path d="M4.79063 13.225C4.69375 13.4656 4.66875 15.2406 4.75625 15.3281C4.84375 15.4156 35.05 15.3687 35.1531 15.2844C35.2563 15.2 35.2719 13.2719 35.2219 13.1531C35.1719 13.0344 26.6563 7.21875 26.6563 7.21875L13.4906 7.28437C13.4875 7.28437 4.84688 13.0812 4.79063 13.225ZM1.48125 36.4469C1.45312 36.3781 1.48125 36.0531 1.48125 35.9219C1.48125 35.7906 1.60625 35.6406 1.8875 35.6406C2.16875 35.6406 37.8688 35.5906 38.0438 35.5969C38.4844 35.6125 38.7813 35.7063 38.825 35.9875C38.8688 36.2688 38.8531 36.4719 38.8531 36.4719L1.48125 36.4469ZM37.1031 34.2281L3.28438 34.2531C3.28438 34.2531 3.29688 33.9063 3.29688 33.7875C3.29688 33.6688 3.35938 33.475 3.7625 33.475C4.16563 33.475 36.2375 33.3531 36.5125 33.3531C36.7875 33.3531 37.0875 33.4813 37.125 33.6719C37.1625 33.8625 37.1031 34.2281 37.1031 34.2281ZM33.8313 32.1344L33.5813 31.4031L6.40938 31.3969L6.20625 32.2125L33.8313 32.1344ZM6.09688 21.3687L33.9906 21.4656L33.5906 22.2844L6.41875 22.3875L6.09688 21.3687ZM5.4875 20.2187C5.4875 20.2187 5.24062 20.0406 5.2 19.8062C5.15937 19.5719 5.26875 19.4344 5.26875 19.4344L35.0062 19.3687C35.0062 19.3687 35.1188 19.6 35.0219 19.7625C34.925 19.9281 34.65 20.0781 34.65 20.0781L5.4875 20.2187ZM3.1875 16.3094L36.8344 16.2094C36.8344 16.2094 36.8563 16.5313 36.8344 16.6656C36.8156 16.8 36.6406 16.9187 36.1938 16.9187H35.7469C35.7469 16.9187 4.25 17.075 3.9 17.075C3.55 17.075 3.3 16.8813 3.24063 16.725C3.20625 16.6219 3.1875 16.3094 3.1875 16.3094Z" fill="#94ADBC"/>
<path d="M5.62793 14.0718L12.7061 9.29365L13.1811 14.1655L5.62793 14.0718ZM27.3592 9.13428L34.4467 14.1343H27.1686L27.3592 9.13428Z" fill="#657582"/>
<path d="M10.4402 20.1968L11.6059 20.1937L12.5184 22.3843L12.434 31.403L11.6746 33.4468L10.3184 33.4499L9.57148 31.4155L9.53711 22.3655L10.4402 20.1968ZM16.6465 20.1655L15.4871 22.3343L15.5746 31.403L16.2621 33.4312L23.834 33.3999L24.5152 31.403L24.534 22.3155L23.6496 20.1312L16.6465 20.1655ZM28.5527 20.1093L29.5809 20.103L30.4902 22.2937L30.4871 31.4062L29.959 33.3812L28.2434 33.3843L27.7184 31.4062L27.6777 22.303L28.5527 20.1093Z" fill="#54636E"/>
<path d="M17.0684 33.4282V26.4751L23.1684 26.5345L23.1809 33.4095L17.0684 33.4282Z" fill="#6BA4AE"/>
<path d="M19.7687 26.1592L19.7656 33.4186L20.3969 33.4154V26.2654L19.7687 26.1592Z" fill="#A5D0D7"/>
<path d="M17.0684 26.8063V25.0625H23.1684V26.8063C23.1684 26.8063 17.1215 26.7531 17.0684 26.8063Z" fill="#95ACBC"/>
<path d="M17.0688 25.0627H23.1688C23.1688 25.0627 23.1938 24.5189 22.6282 24.4658C22.0626 24.4127 17.9063 24.4564 17.5563 24.4658C17.0345 24.4814 17.0688 25.0627 17.0688 25.0627Z" fill="#CCDEED"/>
<path d="M20.1223 3.47186C15.5942 3.49999 12.0098 7.08124 12.1629 11.6094C12.3161 16.1375 16.4692 19.3219 20.1223 19.2937C23.9567 19.2656 27.9942 16.5219 28.1754 11.5844C28.3598 6.64999 24.2036 3.44374 20.1223 3.47186Z" fill="#CDDFEE"/>
<path d="M20.15 4.55628C16.3594 4.58128 13.325 7.69066 13.4531 11.6344C13.5781 15.5782 16.9156 18.0782 19.975 18.1063C23.5031 18.1375 26.75 15.8313 26.9 11.5344C27.05 7.23753 23.5656 4.53441 20.15 4.55628Z" fill="#94ADBC"/>
<path d="M19.056 6.75942C19.056 6.75942 18.9872 5.55317 19.0716 5.45005C19.156 5.34692 19.4997 5.34692 20.1654 5.34692C20.8341 5.34692 21.106 5.34692 21.2091 5.4313C21.3122 5.51567 21.2591 6.83442 21.2591 6.83442C21.2591 6.83442 22.1654 7.17505 22.731 7.61255C23.331 8.07505 23.7591 8.69067 23.7247 8.7938C23.6904 8.89692 22.4935 9.94067 22.3216 9.9063C22.1497 9.87192 21.1747 8.7313 20.0122 8.6563C18.1654 8.53755 18.181 9.97505 19.3279 10.3688C20.4747 10.7625 24.0904 11.075 23.9497 13.9532C23.831 16.375 21.3841 16.5469 21.3841 16.5469C21.3841 16.5469 21.4529 17.4532 21.3841 17.5063C21.3154 17.5594 19.1591 17.5907 19.0904 17.4907C19.0216 17.3907 19.0747 16.4625 19.0747 16.4625C19.0747 16.4625 18.1154 16.275 17.3279 15.7438C16.5404 15.2125 15.9747 14.5125 15.9591 14.425C15.9435 14.3407 17.3466 13.1594 17.4466 13.125C17.5466 13.0907 18.9747 14.4969 20.3216 14.6125C21.6904 14.7313 22.2716 13.3813 20.3716 12.8C18.4716 12.2188 16.231 11.7219 16.3341 9.3438C16.4372 6.92817 19.056 6.75942 19.056 6.75942Z" fill="#024FAC"/>
</svg>
