<svg width="40" height="40" viewBox="0 0 40 40" fill="none" xmlns="http://www.w3.org/2000/svg">
<g clip-path="url(#clip0_1622_7480)">
<path d="M39.4017 24.8365C36.7295 35.5565 25.8684 42.0731 15.1637 39.4008C4.44341 36.7286 -2.07315 25.8679 0.599197 15.1634C3.27138 4.44342 14.1167 -2.07315 24.837 0.599198C35.5417 3.25576 42.074 14.1164 39.4017 24.8365Z" fill="url(#paint0_linear_1622_7480)"/>
<path d="M29.5225 17.5078C29.9131 14.8516 27.8975 13.4141 25.1162 12.4609L26.0225 8.85156L23.835 8.30469L22.96 11.8203C22.3818 11.6797 21.7881 11.5391 21.1943 11.4141L22.0693 7.88281L19.8818 7.33594L18.9912 10.9297C18.5068 10.8203 18.0381 10.7109 17.585 10.6016V10.5859L14.5537 9.83594L13.9756 12.1797C13.9756 12.1797 15.6006 12.5547 15.5693 12.5703C16.46 12.7891 16.6162 13.3828 16.585 13.8516L15.5537 17.9609C15.6162 17.9766 15.6943 17.9922 15.7881 18.0391C15.71 18.0234 15.6318 18.0078 15.5537 17.9766L14.1162 23.7266C14.0068 23.9922 13.7256 24.3984 13.1162 24.2422C13.1318 24.2734 11.5225 23.8516 11.5225 23.8516L10.4287 26.3672L13.2881 27.0859C13.8193 27.2266 14.335 27.3516 14.8506 27.4922L13.9443 31.1328L16.1318 31.6797L17.0381 28.0703C17.6318 28.2266 18.2256 28.3828 18.7881 28.5234L17.8975 32.1172L20.085 32.6641L20.9912 29.0234C24.7412 29.7266 27.5537 29.4453 28.7256 26.0547C29.6787 23.3359 28.6787 21.7578 26.71 20.7266C28.1631 20.3984 29.2412 19.4453 29.5225 17.5078ZM24.5068 24.5391C23.835 27.2578 19.2412 25.7891 17.7568 25.4141L18.96 20.5859C20.4443 20.9609 25.2256 21.6953 24.5068 24.5391ZM25.1943 17.4609C24.5693 19.9453 20.7568 18.6797 19.5225 18.3672L20.6162 13.9922C21.8506 14.3047 25.835 14.8828 25.1943 17.4609Z" fill="white"/>
</g>
<defs>
<linearGradient id="paint0_linear_1622_7480" x1="1998.92" y1="-0.959999" x2="1998.92" y2="3999.6" gradientUnits="userSpaceOnUse">
<stop stop-color="#F9AA4B"/>
<stop offset="1" stop-color="#F7931A"/>
</linearGradient>
<clipPath id="clip0_1622_7480">
<rect width="40" height="40" fill="white"/>
</clipPath>
</defs>
</svg>
