<svg width="40" height="40" viewBox="0 0 40 40" fill="none" xmlns="http://www.w3.org/2000/svg">
<path d="M32.5248 16.7335C33.0414 13.2252 30.3848 11.3535 26.7248 10.0835L27.9114 5.35516L25.0214 4.63683L23.8698 9.2485L21.5631 8.69683L22.7314 4.05183L19.8431 3.3335L18.6581 8.0785L16.8198 7.64516V7.6285L12.8264 6.62516L12.0581 9.71516C12.0581 9.71516 14.1964 10.2185 14.1631 10.2335C15.3331 10.5352 15.5331 11.3035 15.4998 11.9052L14.1631 17.3185L14.4631 17.4185L14.1464 17.3518L12.2581 24.9202C12.1248 25.2718 11.7564 25.8068 10.9381 25.5885C10.9714 25.6385 8.84975 25.0885 8.84975 25.0885L7.41309 28.3802L11.1731 29.3135L13.2281 29.8502L12.0248 34.6452L14.9148 35.3618L16.0848 30.6185L18.4064 31.2185L17.2214 35.9468L20.1114 36.6668L21.2964 31.8718C26.2264 32.8052 29.9364 32.4385 31.4898 27.9768C32.7431 24.3868 31.4231 22.3302 28.8331 20.9602C30.7214 20.5435 32.1414 19.2902 32.5081 16.7335H32.5248ZM25.9248 25.9902C25.0381 29.5835 18.9914 27.6268 17.0364 27.1602L18.6231 20.7935C20.5764 21.2952 26.8598 22.2468 25.9231 25.9735L25.9248 25.9902ZM26.8098 16.6835C26.0081 19.9418 20.9614 18.2868 19.3414 17.8868L20.7764 12.1218C22.4148 12.5235 27.6598 13.2918 26.8098 16.6835Z" fill="#F7931A"/>
</svg>
